# xmcd
#
# Track frame offsets:
#	150
#	18561
#	32547
#	56796
#	78892
#	104103
#	126453
#	151795
#	176242
#	195700
#	232636
#	270604
#
# Disc length: 3847 seconds
#
# Revision: 0
# Processed by: cddbd v1.5.2PL0 Copyright (c) Steve Scherf et al.
# Submitted via: EZCDAudioConverter 2.1.7.1
#
DISCID=9c0f050c
DTITLE=V/A - The Orange Collection 1/2
DYEAR=1900
DGENRE=
TTITLE0=Anoraak - Odds Are Good
TTITLE1=Ary - Higher
TTITLE2=Majestique featuring Lakshmi - Renegades
TTITLE3=Du Tonc - Animals
TTITLE4=NTEIBINT featuring Birsen - Riptide
TTITLE5=This Soft Machine - On and On
TTITLE6=Tarjei Nygard and Are Foss - Flog
TTITLE7=Moscoman - Fernandez
TTITLE8=Horixon featuring Maya - Hold It Like I Own It
TTITLE9=Trulz and Robin featuring Ost - Find My Love
TTITLE10=Marvin and Guy - Unfailing Fall
TTITLE11=Hydrogen Sea - Wear Out [Mees Dierdorp Remix]
EXTD=
EXTT0=
EXTT1=
EXTT2=
EXTT3=
EXTT4=
EXTT5=
EXTT6=
EXTT7=
EXTT8=
EXTT9=
EXTT10=
EXTT11=
PLAYORDER=
